<?xml version="1.0" standalone="no"?>
<!DOCTYPE svg PUBLIC "-//W3C//DTD SVG 20010904//EN"
 "http://www.w3.org/TR/2001/REC-SVG-20010904/DTD/svg10.dtd">
<svg version="1.0" xmlns="http://www.w3.org/2000/svg"
 width="200.000000pt" height="48.000000pt" viewBox="0 0 200.000000 48.000000"
 preserveAspectRatio="xMidYMid meet">

<g transform="translate(0.000000,48.000000) scale(0.100000,-0.100000)"
fill="#000000" stroke="none">
<path d="M305 430 c3 -5 8 -10 11 -10 2 0 4 5 4 10 0 6 -5 10 -11 10 -5 0 -7
-4 -4 -10z"/>
<path d="M640 410 c0 -5 7 -10 15 -10 11 0 15 -12 15 -49 0 -51 7 -81 19 -81
4 0 5 27 3 61 -4 55 -3 61 17 66 37 9 23 23 -24 23 -25 0 -45 -4 -45 -10z"/>
<path d="M822 400 c-6 -14 -20 -47 -31 -74 -22 -50 -20 -75 3 -43 7 9 23 17
36 17 13 0 29 -8 36 -17 26 -36 24 -3 -5 68 -28 68 -30 72 -39 49z m21 -54 c3
-8 -1 -17 -9 -20 -9 -4 -14 1 -14 14 0 23 15 27 23 6z"/>
<path d="M958 346 c4 -82 22 -106 22 -30 l0 46 43 -47 42 -47 0 76 c0 42 -3
76 -6 76 -10 0 -19 -28 -19 -60 l0 -29 -42 45 -43 45 3 -75z"/>
<path d="M1147 413 c-11 -10 -8 -143 3 -143 6 0 10 32 10 75 0 75 -1 81 -13
68z"/>
<path d="M1230 410 c0 -5 7 -10 15 -10 11 0 15 -12 15 -48 0 -27 6 -57 15 -68
13 -17 14 -13 15 49 0 53 3 67 15 67 8 0 15 5 15 10 0 6 -20 10 -45 10 -25 0
-45 -4 -45 -10z"/>
<path d="M1392 349 c-30 -72 -33 -102 -8 -66 17 22 62 22 75 0 5 -10 13 -15
16 -11 4 4 -6 39 -22 78 l-30 72 -31 -73z m35 -21 c-16 -10 -21 -2 -13 19 6
15 9 15 16 3 6 -9 5 -17 -3 -22z"/>
<path d="M398 250 c-2 -43 1 -60 10 -60 8 0 12 19 12 60 0 78 -17 78 -22 0z"/>
<path d="M535 275 c0 -22 4 -31 13 -28 6 3 12 15 12 28 0 13 -6 25 -12 28 -9
3 -13 -6 -13 -28z"/>
<path d="M459 241 c-3 -36 0 -51 9 -51 14 0 17 67 3 89 -6 9 -10 -3 -12 -38z"/>
<path d="M510 233 c0 -7 13 -27 30 -45 38 -43 39 -23 0 22 -16 19 -29 29 -30
23z"/>
<path d="M843 209 c-25 -9 -53 -47 -53 -71 0 -9 11 -29 23 -44 47 -55 127 -26
127 46 0 54 -47 88 -97 69z m65 -31 c7 -7 12 -24 12 -38 0 -34 -17 -50 -52
-50 -18 0 -33 8 -44 25 -15 23 -15 27 0 50 18 27 63 34 84 13z"/>
<path d="M1558 214 c-5 -4 -8 -41 -8 -83 0 -52 3 -72 10 -65 6 6 10 42 8 83
-2 40 -6 69 -10 65z"/>
<path d="M1682 205 c-82 -35 -30 -167 54 -135 35 14 53 38 53 70 0 54 -54 87
-107 65z m74 -40 c15 -23 15 -27 0 -50 -30 -46 -96 -26 -96 29 0 46 69 61 96
21z"/>
<path d="M640 146 c0 -36 5 -68 10 -71 6 -3 10 4 10 16 0 22 1 22 30 -6 34
-33 55 -26 22 7 l-22 22 22 23 c18 19 20 27 10 48 -9 20 -19 25 -47 25 l-35 0
0 -64z m66 33 c8 -14 -21 -43 -35 -35 -19 12 -13 46 8 46 11 0 23 -5 27 -11z"/>
<path d="M1017 148 c-9 -37 -17 -73 -17 -80 1 -20 30 23 30 44 0 29 17 21 30
-14 l12 -33 19 40 18 40 7 -32 c3 -18 13 -38 20 -44 18 -15 17 -9 -5 76 l-18
70 -20 -45 -20 -45 -19 45 -20 45 -17 -67z"/>
<path d="M1243 152 c-40 -105 -40 -100 -11 -74 30 28 49 28 71 1 10 -11 20
-19 23 -16 5 5 -49 147 -56 147 -3 0 -15 -26 -27 -58z m41 -17 c3 -9 0 -15 -9
-15 -8 0 -15 7 -15 15 0 8 4 15 9 15 5 0 11 -7 15 -15z"/>
<path d="M1390 140 c0 -40 4 -70 10 -70 6 0 10 10 10 21 0 21 1 20 26 -6 31
-33 43 -26 19 11 -16 25 -16 28 -1 36 19 11 21 49 4 66 -7 7 -25 12 -40 12
-28 0 -28 0 -28 -70z m55 25 c0 -28 -29 -25 -33 3 -3 19 0 23 15 20 10 -2 18
-12 18 -23z"/>
<path d="M416 68 c10 -14 21 -24 23 -22 3 3 -6 15 -18 27 l-24 22 19 -27z"/>
</g>
</svg>
